<svg xmlns="http://www.w3.org/2000/svg" viewBox="0 0 128 128" fill="none" role="img" aria-label="Birr Tera">
  <defs>
    <linearGradient id="bg" x1="16" y1="8" x2="112" y2="120" gradientUnits="userSpaceOnUse">
      <stop stop-color="#1a1714"/>
      <stop offset="1" stop-color="#0a0908"/>
    </linearGradient>
    <linearGradient id="gold" x1="32" y1="88" x2="96" y2="24" gradientUnits="userSpaceOnUse">
      <stop stop-color="#a67c00"/>
      <stop offset="0.5" stop-color="#e4b429"/>
      <stop offset="1" stop-color="#f5d76e"/>
    </linearGradient>
  </defs>
  <path d="M64 8C92 8 112 28 112 56V88C112 108 96 120 64 120C32 120 16 108 16 88V56C16 28 36 8 64 8Z" fill="url(#bg)"/>
  <path d="M64 8C92 8 112 28 112 56V88C112 108 96 120 64 120C32 120 16 108 16 88V56C16 28 36 8 64 8Z" stroke="url(#gold)" stroke-width="2.5"/>
  <path d="M38 82V58L48 68V82H38Z" fill="url(#gold)" opacity="0.55"/>
  <path d="M54 82V44L64 54V82H54Z" fill="url(#gold)" opacity="0.8"/>
  <path d="M70 82V32L80 42V82H70Z" fill="url(#gold)"/>
  <path d="M64 22L72 34H56L64 22Z" fill="#f5d76e"/>
</svg>
